<svg width="87" height="35" viewBox="0 0 87 35" fill="none" xmlns="http://www.w3.org/2000/svg">
<circle cx="44" cy="17" r="17" fill="#F9CADA"/>
<path d="M3.668 8.296L1.288 7.932V6.196H10.248V7.932L7.784 8.296V25.04L10.248 25.348V27H1.288V25.32L3.668 25.04V8.296ZM30.8317 27C30.5517 27 30.1877 26.6453 29.7397 25.936C29.2917 25.208 28.6664 24.06 27.8637 22.492C27.1731 21.148 26.5944 20.0653 26.1277 19.244C25.6611 18.4227 25.2131 17.7413 24.7837 17.2L22.2917 20.056V25.04L24.6997 25.348V27H15.9917V25.32L18.2037 25.04V8.296L16.0197 7.932V6.196H24.4477V7.932L22.2917 8.296V17.424L29.6557 8.296L27.3597 7.932V6.196H34.9197V7.932L32.5957 8.296L27.1637 14.4C27.8171 14.9973 28.5077 15.8467 29.2357 16.948C29.9637 18.0307 30.8504 19.4493 31.8957 21.204C32.6611 22.492 33.2397 23.4347 33.6317 24.032C34.0237 24.6107 34.3224 24.9467 34.5277 25.04L35.8437 25.348V27H30.8317ZM39.4303 8.296L37.0503 7.932V6.196H46.0103V7.932L43.5463 8.296V25.04L46.0103 25.348V27H37.0503V25.32L39.4303 25.04V8.296ZM50.5781 8.296L48.3381 7.932V6.196H63.2621L63.6261 10.9H61.6661L60.7421 8.128L54.6941 7.876V15.408L58.5861 15.324L59.0341 13.028H60.8261V19.804H59.0341L58.5861 17.396L54.6941 17.312V25.208L61.4701 24.872L63.0941 21.288L65.1941 21.876L64.4661 27H48.3661V25.32L50.5781 25.04V8.296ZM76.4017 27.224C73.5644 27.224 71.4551 26.5147 70.0737 25.096C68.6924 23.6773 68.0017 21.4467 68.0017 18.404V8.296L66.1537 7.932V6.196H74.6097V7.932L72.2297 8.324V18.768C72.2297 23.2107 73.8071 25.432 76.9617 25.432C78.5111 25.432 79.6591 24.8627 80.4057 23.724C81.1524 22.5667 81.5257 20.952 81.5257 18.88V8.324L79.1177 7.932V6.196H86.1177V7.932L84.2137 8.296V18.656C84.2137 21.568 83.5044 23.724 82.0857 25.124C80.6857 26.524 78.7911 27.224 76.4017 27.224Z" fill="#00397C"/>
</svg>
